<?xml version="1.0" encoding="UTF-8" standalone="no"?>
<!-- Created with Inkscape (http://www.inkscape.org/) -->

<svg
   width="16"
   height="16"
   viewBox="0 0 16 16"
   version="1.1"
   id="svg1"
   xml:space="preserve"
   inkscape:version="0.0"
   xmlns:inkscape="http://www.inkscape.org/namespaces/inkscape"
   xmlns:sodipodi="http://sodipodi.sourceforge.net/DTD/sodipodi-0.dtd"
   xmlns="http://www.w3.org/2000/svg"
   xmlns:svg="http://www.w3.org/2000/svg"><sodipodi:namedview
     id="namedview1"
     pagecolor="#ffffff"
     bordercolor="#000000"
     borderopacity="0.25"
     inkscape:showpageshadow="2"
     inkscape:pageopacity="0.0"
     inkscape:pagecheckerboard="0"
     inkscape:deskcolor="#d1d1d1"
     inkscape:document-units="px"
     inkscape:zoom="38.051184"
     inkscape:cx="8.659389"
     inkscape:cy="7.923538"
     inkscape:window-width="1920"
     inkscape:window-height="1057"
     inkscape:window-x="-8"
     inkscape:window-y="-8"
     inkscape:window-maximized="1"
     inkscape:current-layer="layer1" /><defs
     id="defs1" /><g
     inkscape:label="Capa 1"
     inkscape:groupmode="layer"
     id="layer1"><path
       style="fill:#4b3f2c;stroke:none;stroke-width:0.0669743"
       d="M 2.689255,4.9695648 H 2.741422 C 3.0754421,3.95802 4.0286169,4.281818 4.619801,4.281818 V 4.1958496 H 2.8457852 C 3.163446,2.6487422 3.7468657,1.1079218 4.5676238,0.15533703 4.2775552,0.05948226 3.9772468,0.76980205 3.8078778,1.1009896 3.2699873,2.1527968 2.7586556,3.5695818 2.689255,4.969565 M 6.8634086,0.06936899 c 0,1.43202301 -0.2552056,2.66559151 -0.4756314,4.04051231 -0.081278,0.5069965 -0.1178291,1.2677693 -0.4113764,1.5474303 1.764e-4,0.3735888 -0.036511,0.7255834 0.2087087,0.8596837 0,0.6310522 0.1644881,1.0528626 0.2030311,1.6337305 C 6.4149744,8.5551433 6.0418435,9.9410471 5.775866,9.1577356 5.7036201,8.944974 5.8089146,8.5018669 5.773496,8.2362958 5.6554956,7.3515729 5.4758341,6.469118 5.4024598,5.5713436 5.0238409,6.0457265 4.9590724,7.9885005 4.8285137,8.7521722 c 0.1354843,0.2442917 0.1354843,0.3574871 0,0.6017784 C 4.7377421,8.7258194 4.6863194,7.5683354 4.9328732,7.0328051 4.8605879,6.457345 4.7730988,5.2052536 4.4632814,4.8835968 L 4.179409,6.8462753 4.2545648,9.3539506 4.1502051,9.2679822 c -0.1426656,0.7952448 -0.104873,2.0120828 -0.042515,2.8369548 0.024451,0.323489 0.1923963,0.707975 0.1282704,1.03162 -0.132759,0.670019 -0.8021009,1.195428 -1.181469,1.375494 v -0.859682 h 0.05218 l 0.2608858,0.515809 -0.313063,-1.203558 h 0.05218 L 3.315381,13.394464 3.0544965,12.276873 3.315381,12.53478 3.0544965,11.761065 3.2110267,11.84703 3.0023193,11.24525 2.793612,11.84703 3.0023193,11.761065 2.7414348,12.53478 3.0023193,12.276873 2.7414348,13.308494 2.9501422,12.96462 h 0.05218 l -0.3130605,1.117589 0.2608832,-0.42984 h 0.05218 c -5.13e-5,0.79312 -0.074643,1.030984 -0.5739449,1.031619 v 0.08597 h 10.852803 v -0.08597 h -1.200069 v -1.031619 h 0.05218 l 0.260885,0.515809 -0.313063,-1.203558 h 0.05218 l 0.208708,0.429844 -0.260885,-1.117591 0.260885,0.257907 -0.260885,-0.773715 0.156532,0.08596 -0.208708,-0.60178 -0.208709,0.60178 0.208709,-0.171938 -0.260884,0.859684 0.260884,-0.257906 c -0.07719,0.624686 -0.458485,0.868218 -0.782655,1.117589 0,-1.974327 0.130628,-4.0863751 -0.365237,-5.9318154 -0.297228,0.8015878 -0.336522,1.8507378 -0.313063,2.7509874 H 10.359279 L 10.463626,8.8381416 H 10.307087 C 10.303511,8.3097248 10.09826,7.7978736 10.359265,7.3766786 10.244551,6.4609637 10.165039,4.9533076 9.8374943,4.19585 9.5026415,5.6582744 9.5331186,7.0205717 9.4200793,8.4942668 H 9.0548405 c 0,-0.5825376 -0.067111,-1.4074328 0.1565302,-1.8913037 C 9.1292497,6.0127678 9.0547101,4.8069337 8.7417788,4.4537547 L 8.4596774,6.3373634 8.5852486,8.4942668 H 8.3765399 L 8.5330715,8.1503936 C 8.325499,7.3167821 8.1940147,7.1187736 7.6460636,7.1187736 V 6.5169951 C 7.8912849,6.3828944 7.8545971,6.0309003 7.854771,5.6573114 7.5834044,5.3987849 7.5446085,4.7529203 7.4701677,4.281818 7.2674552,2.9989566 6.967763,1.746263 6.967763,0.41324262 7.2960981,0.44095141 7.7644471,0.8760726 7.8025938,0.06936883 H 7.6982342 V 0.49921066 L 6.8634034,0.06936883 m 4.2785076,0 V 0.15533719 C 11.72398,0.83089381 12.267667,1.9114898 12.55069,2.9922923 h -1.408777 v 0.085968 c 0.709172,0.024119 1.457194,-0.1604818 1.721839,1.1175889 h 0.05218 C 12.725588,2.8724193 11.993984,0.4634251 11.141918,0.06936883 M 9.8896709,0.92905251 9.9418497,1.0150209 9.8896709,0.92905251 M 5.0893929,1.4448623 5.14157,1.7027679 5.2981015,1.4448623 H 5.0893929 M 6.967763,2.2185779 7.2286475,5.5713433 H 6.6025241 C 6.7068837,4.648407 6.6237622,2.9628719 6.967763,2.2185779 M 6.8112328,2.3045462 C 6.7536152,3.0550123 6.7761961,5.5881312 6.2372866,5.6573114 6.3248717,4.6764386 6.4984252,3.1483658 6.8112328,2.3045459 m 0.2608845,0.085968 0.5217691,3.2667975 C 7.1348806,5.5983884 6.9749599,3.057375 7.0721173,2.3905139 M 7.906948,3.4221344 V 3.5940713 H 8.0113079 V 3.4221344 H 7.906948 m 2.921909,0.7737156 0.05218,0.085969 -0.05218,-0.085969 m 2.104469,0.1432807 0.0174,0.057314 -0.0174,-0.057314 m -10.2962482,0.7164031 0.052167,0.085968 -0.052167,-0.085968 m 6.2090554,0.085968 0.1043466,1.2895256 H 8.6895951 L 8.8461266,5.1415023 m 1.0435377,0 0.1565317,2.1492091 H 9.6809578 L 9.8896643,5.1415023 M 4.5676172,5.5713441 4.6719771,6.8608697 H 4.4110976 L 4.5676238,5.5713441 m 5.1655172,0 C 9.6959847,6.0553602 9.7182231,6.9822072 9.4722568,7.2907113 L 9.733141,5.571344 M 7.7504166,5.743281 V 6.3450588 H 6.0807551 V 5.7432803 h 1.6696615 m 1.2522468,0 0.1043598,0.6877468 -0.1043598,-0.6877468 m 1.0435396,0 0.208708,1.5474303 C 10.033547,7.0544739 9.9712931,6.1445486 10.046203,5.7432803 M 8.6374245,5.9152163 8.5330781,6.4310271 8.6374245,5.9152163 M 4.7241554,6.0871533 4.828515,6.9468368 H 4.776348 L 4.724168,6.0871533 m -0.313063,0.085969 -0.05218,0.085968 0.05218,-0.085968 M 4.358925,6.3450582 4.306745,6.9468368 H 4.254565 L 4.3588993,6.3450582 m 3.23497,0.1719369 v 0.4298417 h -0.05218 C 7.3738715,6.4781799 7.2929553,6.9712119 7.3330019,7.2907106 L 7.5938864,7.1187736 C 7.5595606,7.4642672 7.4066526,7.7092969 7.3882376,8.0644916 7.291383,9.9326356 7.7907766,12.106467 6.445994,12.96462 c 0,-1.925064 0.1286785,-3.9537342 -0.2087074,-5.7598781 H 6.5503469 C 6.5327562,6.8261941 6.4734269,6.666561 6.2372866,6.7749 6.3013165,6.282584 7.3155059,6.5169951 7.5938864,6.5169951 M 5.3502787,6.6029634 5.5068089,8.6662039 H 5.14157 L 5.3502787,6.6029634 M 6.8112328,7.2907109 7.0721173,7.2047426 C 7.0411492,6.5362901 6.7123651,6.6738903 6.8112328,7.2907109 M 9.0548405,6.6029634 C 9.0308243,7.1107652 8.8598015,7.117176 8.5852486,7.118774 V 6.6029631 H 9.0548405 M 6.445994,6.7749 V 7.1187736 H 6.393814 L 6.445994,6.7749 m 0.521769,0 V 7.1187736 H 6.8634034 V 6.7749 h 0.1043598 m 0.4695919,0 v 0.3438736 h -0.05218 L 7.4373549,6.7749 M 4.7241554,7.5486155 H 4.3067406 V 7.032805 c 0.2692019,0.00155 0.4412702,0.00388 0.4174148,0.5158105 M 5.1937472,7.1187736 C 5.1896656,7.5115583 5.1934286,8.5742117 4.9328627,8.6662037 L 5.1937472,7.1187736 M 5.558986,7.2047422 5.7676934,8.6662039 C 5.5197623,8.5791125 5.4493584,7.521885 5.558986,7.2047419 M 8.4287171,8.0644252 7.4373549,7.9784569 V 7.7205516 C 7.8936273,7.0783908 8.1789388,7.0763007 8.4287171,8.0644252 M 8.9504862,7.2047419 V 8.4942668 H 8.6374245 c 0,-0.5360853 -0.1067164,-1.2356374 0.3130617,-1.2895249 M 9.733141,7.3766786 9.6287834,8.0644252 10.0462,8.1503937 9.941842,7.3766788 c 0.245221,0.1340973 0.208534,0.4860957 0.208708,0.8596833 H 9.5766101 V 7.3766786 H 9.733141 m 0.2087076,0.1719369 0.052179,0.5158097 H 9.7331421 C 9.7468329,7.7712937 9.7685512,7.6430828 9.9418497,7.5486155 M 4.724158,7.7205516 4.6719782,9.3539503 H 4.4110923 L 4.3589125,7.7205516 H 4.7241514 M 8.3243588,8.4942668 H 7.4373549 V 8.236362 C 7.7019366,8.1075061 8.2187511,7.9699841 8.3243628,8.4942668 m -1.2522455,0.687747 c -5.26e-5,-0.1147475 0.00316,-0.2326067 -0.00101,-0.3473227 -0.036709,-1.023259 -0.6369398,0.2654261 0.00101,0.3473227 M 10.881033,8.3223303 10.98538,9.5258872 H 10.776672 L 10.88103,8.3223303 M 6.9677595,8.4082988 V 9.0100772 H 6.8633996 L 6.9677595,8.4082987 m 3.2871465,0 -0.05218,0.4298417 c -0.2849543,0 -0.6713525,0.1538651 -0.7304768,-0.4298417 H 10.254905 M 9.4200754,8.6662034 v 0.085969 c -0.5115201,0.2491182 -1.4712044,0.2491182 -1.9827245,0 0.5236454,-0.3620357 1.413442,-0.085969 1.9827245,-0.085969 m -4.174155,0.1719368 -0.05218,0.7737151 C 4.9737231,9.534173 5.0372171,9.1514057 5.0372171,8.8381404 h 0.2087072 m 0.3652389,0 -0.1043596,0.7737151 -0.05218,-0.7737151 h 0.1565315 m 5.1133389,0 -0.15653,0.6877468 0.15653,-0.6877468 m -5.3220476,0.085968 0.05218,0.51581 H 5.2459192 l 0.05218,-0.51581 h 0.1043466 m 3.8610934,0 v 0.51581 L 7.4373549,9.3539503 7.4895321,8.9241088 h 1.7740157 m 1.0957172,0 V 9.3539503 H 9.3679022 V 8.9241088 h 0.9913628 m 0.730476,0 0.05218,0.6017784 h -0.05218 V 8.9241088 m -6.7830004,0.51581 V 12.53478 h -0.05218 l -0.05218,-3.0948612 h 0.1043598 m 0.6782993,0 L 4.8806803,13.136557 4.4125354,12.998718 4.3589072,12.018971 V 9.4399204 H 4.985032 m 1.1478924,0 v 2.6650176 c 0,0.507387 0.056196,0.961591 -0.3130617,1.03162 0,-1.278654 0.1257029,-2.485623 -0.1043599,-3.6966376 h 0.4174134 m 0.1565302,0 h 0.05218 c 0.1450119,0.8083146 0.052206,1.8240756 0.05218,2.6650176 -1.45e-5,0.369284 0.038631,0.713754 -0.1565302,0.945652 0,-1.027947 -0.1883937,-2.66607 0.05218,-3.6106696 m 3.9654458,0 v 2.3211456 h -0.208707 c 0,-1.291435 -0.3652392,-1.293829 -0.3652392,0 H 9.4722568 V 9.4399188 H 10.254911 M 9.3679022,9.6118555 V 11.761065 H 7.4895321 V 9.6118555 H 9.3679022 M 7.0721173,10.557508 c -5.26e-5,-0.114746 0.00316,-0.232608 -0.00101,-0.347324 -0.036709,-1.0232581 -0.6369411,0.265426 0.00101,0.347324 M 11.089741,9.6978239 V 10.213634 H 10.672325 V 9.6978239 h 0.417416 M 5.7155162,9.7837923 V 10.213634 H 4.9850399 V 9.783792 h 0.7304763 m 1.2522468,0 v 0.601779 H 6.8634032 L 6.967763,9.783792 m 0.7304778,0 v 0.687747 H 7.906948 V 9.7837923 H 7.6982408 m 0.3130616,0 v 0.6877467 c 0.25023,-0.07164 0.2450923,-0.317795 0.2087073,-0.6877467 H 8.0113024 m 0.3130604,0 v 0.6877467 c 0.3132394,-0.08613 0.3132407,-0.6016177 0,-0.6877467 M 8.6374245,10.471539 H 8.898309 c -0.00514,-0.7190764 -0.2557126,-0.7190746 -0.2608845,0 m 0.3130617,0 h 0.2608845 c -0.00514,-0.7190764 -0.2557126,-0.7190746 -0.2608845,0 M 7.854771,9.8697606 V 10.299602 H 7.7504113 V 9.8697606 h 0.1043599 m 0.3130616,0 V 10.299602 H 8.0634729 L 8.1678328,9.8697606 m 0.3130617,0 v 0.5158104 h -0.05218 l 0.05218,-0.5158104 m 0.3130617,0 v 0.5158104 h -0.05218 l 0.05218,-0.5158104 m 0.3130617,0 v 0.5158104 h -0.05218 l 0.05218,-0.5158104 M 5.8720478,10.299602 v 0.429842 H 4.8285097 c 0.06823,-0.673601 0.7222998,-0.429842 1.0435381,-0.429842 m 5.2698702,0 v 1.461463 h -0.782653 v -1.461463 h 0.782653 m -3.4436772,0.343874 v 0.687747 H 7.906948 c -0.0025,-0.338247 0.00237,-0.572305 -0.2087072,-0.687747 m 0.3130616,0.687747 0.2608845,-0.08596 -0.05218,-0.601779 c -0.2111076,0.115434 -0.2062755,0.349499 -0.2087074,0.687747 m 0.3130604,0 H 8.585246 l -0.05218,-0.687747 c -0.2111089,0.115435 -0.2062755,0.349499 -0.2087087,0.687747 m 0.3130617,0 h 0.2608846 c -0.00514,-0.719076 -0.2557127,-0.719076 -0.2608846,0 m 0.3130617,0 h 0.2608846 c -0.00514,-0.719076 -0.2557127,-0.719076 -0.2608846,0 M 9.8896663,10.643484 9.994024,11.761073 H 9.7331399 c 0,-0.420267 -0.035783,-0.807283 0.1565299,-1.117589 M 5.7676934,10.815416 V 13.13656 H 5.558986 c 0,-1.276984 -0.417416,-1.276984 -0.417416,0 H 4.9328627 c 0,-0.454245 -0.1441324,-1.93553 0.083661,-2.232789 0.1619721,-0.21136 0.5545437,-0.08836 0.7511732,-0.08836 m 2.0870775,0 v 0.429842 H 7.7504153 v -0.429841 h 0.1043598 m 0.3130618,0 v 0.429841 h -0.10436 v -0.429841 h 0.1043599 m 0.3130617,0 v 0.429841 h -0.05218 l -0.05218,-0.429841 h 0.1043599 m 0.3130617,0 v 0.429841 h -0.05218 l 0.05218,-0.429841 m 0.3130617,0 v 0.429841 h -0.05218 l 0.05218,-0.429841 m -2.2580622,0.351303 c -0.1522589,0.180361 -0.06981,0.916388 0.1405076,0.672886 0.1501074,-0.173784 0.060462,-0.910948 -0.1405076,-0.672886 m 0.1188035,-0.0075 v 0.60178 H 6.8634032 L 6.967763,11.159211 m 4.174155,0.773716 v 0.08596 H 7.4373549 l 1.1478937,-0.08597 h 2.5566694 m -3.7567389,0.08596 v 1.117589 C 6.7719828,12.972648 6.4680601,13.829458 5.8198706,13.39437 v -0.08596 l 1.5653085,-1.289523 m -1.9305474,0.08596 v 1.03162 H 5.2459243 v -1.031615 h 0.2087074 m 5.6872863,0.08596 v 0.08596 l -0.313061,0.08596 v 0.08597 c 0.407467,0.0523 0.40425,0.889825 0.15653,1.289525 -0.02224,-0.122475 -0.03638,-0.222648 -0.05036,-0.347257 -0.130297,-1.160713 -0.378211,0.884638 -0.471403,1.035004 0,-0.186753 0.04946,-1.680728 -0.230408,-1.382259 -0.188895,0.20144 -0.08266,1.307207 -0.08266,1.640162 H 9.941842 c 0,-0.282157 0.099211,-1.594182 -0.1178812,-1.665104 -0.2892411,-0.09449 -0.1951807,1.402135 -0.1951807,1.665104 h -0.156531 c 0,-0.262971 0.094065,-1.759592 -0.1951799,-1.665104 -0.2170963,0.07092 -0.1178796,1.38295 -0.1178796,1.665107 H 8.9504822 c 0,-0.282157 0.099211,-1.594183 -0.1178819,-1.665105 C 8.54336,12.924306 8.6374205,14.42093 8.6374205,14.683899 H 8.4808903 c 0,-0.418192 0.086967,-1.165687 -0.053379,-1.529652 -0.2396289,-0.621403 -0.2596779,0.75711 -0.2596779,0.927876 h -0.05218 C 8.0173644,13.716888 7.9124426,12.548438 7.6460623,13.308425 l -0.2087087,-0.171935 0.05218,-0.687747 h 0.2087087 v -0.08596 l -0.2087087,-0.08596 1.1478924,-0.08596 h 2.504494 m -3.1827935,0.171936 v 0.08596 h 0.5739463 l -0.5739463,-0.08596 m 0.887008,0 v 0.08596 h 0.6261234 l -0.6261234,-0.08596 m 0.9391854,0 v 0.08596 h 0.7304761 l -0.7304761,-0.08596 m 2.2436081,0.601779 -0.313062,1.117586 0.260884,-0.429841 h 0.05218 v 1.03162 l -1.513132,-0.08597 c 0.314107,-0.702685 0.843462,-1.147413 1.304424,-1.547449 l -0.05218,0.34388 0.260884,-0.429842 m -4.1219787,0.08596 v 0.429841 L 7.7504179,13.050516 h 0.1565314 m 0.469592,0 v 1.633397 h -0.05218 C 8.1830995,14.196007 8.2119833,13.57296 8.2721816,13.050516 h 0.1043467 m 0.5217704,0 v 1.633397 H 8.741767 v -1.633397 h 0.1565302 m 0.4695932,0 v 1.633397 C 9.1067056,14.404987 9.1844355,13.491578 9.2635478,13.05059 h 0.1043599 m 0.4174155,0 h 0.052179 l 0.052179,1.633398 H 9.7331509 l 0.052179,-1.633398 m 0.5739461,0 v 1.633398 H 10.202747 V 13.05059 h 0.156532 m 0.417414,0 h 0.05218 c 0.06304,0.351496 0.09996,0.727406 -0.104347,0.945651 l 0.05218,-0.945651 m -3.5480289,0.171937 c 0.1121281,0.767107 0.2278361,1.458009 -0.3652387,1.461461 L 7.072145,13.222527 h 0.1565301 m -1.043538,1.117588 h 0.1043466 c 0.017486,-0.37777 0.081173,-0.540849 0.3130617,-0.601778 l 0.05218,0.945651 c -0.5458406,0 -0.9118457,0.131117 -1.3044226,-0.515811 l 0.1043466,0.515811 H 3.2110412 c 0.6253215,-0.93925 1.2574831,-1.393707 2.0870775,-1.375162 0.4117358,0.0092 0.8618449,0.280747 0.8870078,1.031289 M 6.9677801,13.308494 6.81125,14.598021 C 6.6108442,14.117447 6.6188312,13.538734 6.9677801,13.308494 m 1.2522468,1.375494 c -0.707162,0 -0.8302803,-0.191149 -0.8870079,-1.375494 0.4855013,0.12035 0.7543227,0.616624 0.8870079,1.375494 m -6.9395317,0.515811 v 0.08596 H 14.429082 l -1.200069,-0.08596 H 10.567971 1.280478"
       id="path1"
       sodipodi:nodetypes="ccccccccccccssccccccccccccccccccccccccccccccccccccccccccccccccccccccccccccccccccccccccccccccccccccccccccccccccccccccccccccccccccccccccccccccccccccccccccccccccccccccccccccccccccscccccccccccccccccccccccccccccccccccccccccccccccccccccccccccccccccccccccccccccccccccccccccccccccccccccccccccccccccccccccccccccccccscccccccccccccccccccccccccccccccccccccccccccccccccccccccccccccccccccccccccccccccccccccccccccccccccccccccccccccccccccccccccccccccccccccccccccccccccccccccccccccccccccccccccsccscccccccccccccccccccccccccccccccccccccccccccccccccccccccccccccccccccccccccccccccccccccccccccccc" /></g></svg>
